<?xml version="1.0" encoding="UTF-8"?>
<!-- Generator: Blender, SVG Export for Grease Pencil - v1.0 -->
<!DOCTYPE svg PUBLIC "-//W3C//DTD SVG 1.1//EN" "http://www.w3.org/Graphics/SVG/1.1/DTD/svg11.dtd">
<svg version="1.0" x="0px" y="0px" xmlns="http://www.w3.org/2000/svg" width="753px" height="885px" viewBox="0 0 753 885">
	<g id="blender_frame_1">
		<g id="blender_object_GPencil">
			<!--Layer: contour-->
			<g id="contour">
				<polygon fill="#FEFEFE" stroke="none" fill-opacity="1" points="635.982117,761.130249 637.225403,758.532227 638.391785,755.755249 639.484192,752.806763 640.505188,749.693848 641.457581,746.424072 642.343933,743.004639 643.166931,739.442871 643.929382,735.746216 644.633972,731.921875 645.283386,727.977295 645.880310,723.919739 646.427429,719.756592 646.927429,715.495117 647.382874,711.142639 647.796814,706.706604 648.171692,702.194214 648.510193,697.612915 648.815247,692.969971 649.089294,688.272705 649.335022,683.528564 649.555481,678.744629 649.752991,673.928528 649.930359,669.087463 650.090271,664.228760 650.235535,659.359680 650.368835,654.487732 650.492615,649.620117 650.609924,644.764160 650.723206,639.927246 650.835144,635.116760 650.948669,630.339966 651.066467,625.604126 651.190979,620.916748 651.325012,616.285034 651.471375,611.716309 651.632629,607.218018 651.811584,602.797363 652.010925,598.461792 652.233215,594.218506 652.481384,590.074951 652.757751,586.038452 653.065369,582.116272 653.406921,578.315796 653.784973,574.644409 654.202209,571.109375 654.661316,567.717896 655.165100,564.477539 655.716125,561.395569 656.317200,558.479248 656.971130,555.735962 657.680359,553.173096 658.447693,550.797852 659.275818,548.617615 660.167542,546.639771 661.125427,544.871521 663.355286,541.255310 665.642517,537.765991 667.982849,534.393066 670.371155,531.126099 672.803284,527.954773 675.274353,524.868469 677.779968,521.856812 680.315247,518.909363 682.875793,516.015686 685.457092,513.165283 688.054382,510.347778 690.662903,507.552673 693.278503,504.769531 695.896057,501.987915 698.511292,499.197388 701.119568,496.387573 703.716370,493.547852 706.296814,490.667847 708.856506,487.737183 711.390564,484.745361 713.894836,481.681946 716.364319,478.536499 718.794739,475.298523 721.181335,471.957642 723.519348,468.503357 725.804382,464.925293 728.031799,461.212891 730.196838,457.355774 732.295105,453.343567 733.157166,451.547485 734.006165,449.604919 734.838684,447.520874 735.652161,445.300232 736.443176,442.947937 737.209045,440.468872 737.946472,437.868103 738.652649,435.150452 739.324402,432.320801 739.958679,429.384155 740.552551,426.345459 741.102966,423.209595 741.606750,419.981567 742.060974,416.666199 742.462830,413.268494 742.808899,409.793396 743.096497,406.245667 743.322205,402.630554 743.483459,398.952698 743.576721,395.217102 743.599426,391.428833 743.548279,387.592651 743.420349,383.713562 743.212463,379.796509 742.921936,375.846436 742.545349,371.868164 742.079773,367.866699 741.522156,363.846985 740.869812,359.813965 740.119202,355.772461 739.267639,351.727478 738.311951,347.684021 737.249329,343.646851 736.076355,339.621094 734.790222,335.611572 733.387878,331.623230 731.866272,327.660889 730.222595,323.729614 728.453430,319.834351 726.555847,315.980042 724.527039,312.171448 722.363953,308.413635 720.063293,304.711548 717.622253,301.070007 715.037537,297.493958 712.306458,293.988525 709.425964,290.558350 706.392761,287.208618 703.203918,283.944153 699.856628,280.769714 696.347473,277.690552 692.673645,274.711426 688.832092,271.837219 684.819885,269.072998 680.633850,266.423584 676.270935,263.893921 671.728333,261.488953 667.002747,259.213684 662.091370,257.072937 656.990784,255.071472 659.422791,260.055298 661.660339,265.050842 663.706238,270.050659 665.562805,275.047424 667.233337,280.033691 668.720276,285.002014 670.026306,289.945068 671.154114,294.855347 672.106750,299.725525 672.886658,304.548157 673.496521,309.315918 673.939392,314.021240 674.217712,318.656860 674.334412,323.215393 674.292053,327.689331 674.093323,332.071289 673.741028,336.353882 673.238098,340.529724 672.586975,344.591431 671.790588,348.531494 670.851501,352.342590 669.772644,356.017395 668.556580,359.548279 667.205994,362.927979 665.723938,366.149170 664.112732,369.204285 662.375305,372.086060 660.514343,374.786926 658.532898,377.299561 656.433167,379.616638 654.218079,381.730652 651.890564,383.634277 649.453064,385.320007 646.908630,386.780396 644.259583,388.008301 641.509094,388.996094 638.659485,389.736389 635.713684,390.221863 632.674622,390.445007 629.544739,390.398499 626.326721,390.074951 623.023621,389.466858 619.637756,388.566895 616.172302,387.367676 612.629578,385.861694 609.012634,384.041748 605.652039,382.088257 602.614807,380.050781 599.889099,377.931091 597.463074,375.731140 595.324890,373.452942 593.462585,371.098389 591.864685,368.669495 590.519226,366.168152 589.414124,363.596313 588.537659,360.955933 587.878235,358.248901 587.423889,355.477295 587.162659,352.642944 587.082947,349.747864 587.172791,346.793884 587.420349,343.783142 587.813782,340.717407 588.341370,337.598694 588.991272,334.428955 589.751526,331.210144 590.610657,327.944153 591.556335,324.632996 592.576965,321.278564 593.660950,317.882812 594.795959,314.447754 595.970642,310.975281 597.172913,307.467285 598.391052,303.925781 599.613220,300.352722 600.827332,296.750000 602.022034,293.119629 603.185242,289.463440 604.304993,285.783569 605.369690,282.081848 606.367493,278.360168 607.286438,274.620544 608.114807,270.864868 608.840637,267.095215 609.452332,263.313416 609.937927,259.521362 610.285461,255.721191 610.483215,251.914734 610.519592,248.103882 610.382507,244.290649 610.060120,240.476929 609.540710,236.664795 608.812317,232.856079 607.863464,229.052734 606.681946,225.256775 605.255798,221.469971 603.675720,217.722168 602.037659,214.039490 600.340027,210.422302 598.581360,206.870911 596.760071,203.385498 594.874329,199.966553 592.922913,196.614197 590.904358,193.328918 588.816711,190.110840 586.658630,186.960449 584.428650,183.877869 582.125061,180.863464 579.746155,177.917603 577.290833,175.040649 574.757263,172.232727 572.143860,169.494141 569.449158,166.825378 566.671448,164.226562 563.809387,161.698120 560.861267,159.240295 557.825623,156.853394 554.700745,154.537781 551.485291,152.293640 548.177551,150.121338 544.775940,148.021240 541.279236,145.993591 537.685364,144.038635 533.993225,142.156799 530.200867,140.348328 526.307068,138.613525 522.310120,136.952637 518.208435,135.366089 514.000549,133.854065 509.684753,132.416992 505.259705,131.055054 500.723694,129.768616 496.075256,128.557983 491.312927,127.423401 493.609192,132.329529 495.689514,137.239990 497.557800,142.148071 499.217957,147.047424 500.673889,151.931458 501.929993,156.793640 502.989807,161.627563 503.857483,166.426636 504.537170,171.184509 505.032532,175.894409 505.347961,180.549988 505.487244,185.144775 505.454163,189.672180 505.253235,194.125793 504.887878,198.498962 504.362366,202.785278 503.680847,206.978210 502.846863,211.071167 501.864929,215.057800 500.738586,218.931580 499.472229,222.685852 498.069397,226.314270 496.534485,229.810242 494.871155,233.167236 493.083801,236.378784 491.176208,239.438416 489.152161,242.339600 487.015808,245.075745 484.771301,247.640442 482.422424,250.027161 479.973206,252.229431 477.427795,254.240662 474.790100,256.054382 472.063904,257.664185 469.253479,259.063354 466.362732,260.245483 463.395569,261.204163 460.356018,261.932739 457.248230,262.424805 454.075989,262.673767 450.843323,262.673157 447.554260,262.416565 444.212708,261.897278 440.822937,261.108948 437.388733,260.044983 433.914001,258.698975 430.402771,257.064331 426.859192,255.134583 422.698914,252.586304 418.875061,250.004944 415.376526,247.390625 412.191833,244.743591 409.310120,242.063843 406.720032,239.351746 404.410461,236.607239 402.370300,233.830566 400.587952,231.022034 399.052795,228.181519 397.753235,225.309387 396.678284,222.405701 395.816711,219.470703 395.157410,216.504395 394.688904,213.507141 394.400452,210.478943 394.280334,207.420044 394.317810,204.330566 394.501526,201.210632 394.820251,198.060425 395.262878,194.880188 395.818176,191.670044 396.475037,188.430054 397.222107,185.160461 398.048401,181.861328 398.942444,178.532898 399.893494,175.175293 400.889954,171.788818 401.920837,168.373413 402.975037,164.929321 404.041077,161.456726 405.107971,157.955750 406.164612,154.426514 407.199524,150.869385 408.201843,147.284180 409.160095,143.671326 410.063293,140.030945 410.900208,136.363037 411.659729,132.667969 412.330505,128.945679 412.901428,125.196533 413.361267,121.420593 413.698914,117.617981 413.903137,113.788879 413.962830,109.933533 413.866516,106.052063 413.603455,102.144531 413.162170,98.211121 412.531555,94.252075 411.927063,91.165466 411.250793,88.118164 410.498962,85.111267 409.667053,82.145569 408.751282,79.222168 407.747131,76.341736 406.650940,73.505493 405.458191,70.714233 404.164734,67.968872 402.766785,65.270447 401.259827,62.619812 399.639954,60.017944 397.903015,57.465881 396.044617,54.964355 394.060974,52.514465 391.947815,50.117065 389.700867,47.773132 387.316223,45.483643 384.789490,43.249390 382.116760,41.071472 379.293762,38.950806 376.316467,36.888306 373.180603,34.884888 369.882019,32.941467 366.416809,31.059082 362.780701,29.238586 358.969421,27.480896 354.978943,25.787048 350.805237,24.157898 346.444153,22.594482 341.891296,21.097656 337.142761,19.668457 332.194275,18.307739 327.041931,17.016235 321.681274,15.795288 316.108459,14.645752 310.319153,13.568237 304.309265,12.563965 298.074768,11.633911 291.611389,10.778931 284.914978,10.000000 288.004822,14.931885 290.871399,19.707642 293.519104,24.331055 295.952393,28.806213 298.175659,33.136963 300.193359,37.327148 302.009888,41.380859 303.629639,45.301941 305.057068,49.094360 306.296631,52.762146 307.352661,56.309143 308.229736,59.739441 308.932068,63.056702 309.464294,66.265015 309.830688,69.368469 310.035767,72.370789 310.083862,75.276001 309.979492,78.088013 309.726990,80.810852 309.330811,83.448425 308.795471,86.004578 308.125244,88.483276 307.324646,90.888550 306.398071,93.224365 305.349976,95.494507 304.184753,97.703003 302.906799,99.853821 301.520569,101.950928 300.030579,103.998108 298.441040,105.999512 296.756592,107.958923 294.981445,109.880310 293.120239,111.767700 291.177246,113.624939 289.156921,115.456055 287.063782,117.264832 284.902161,119.055359 282.676453,120.831543 280.391174,122.597290 278.050720,124.356628 275.659424,126.113281 273.221802,127.871521 270.742310,129.634949 268.225281,131.407776 265.675110,133.193787 263.096375,134.997009 260.493408,136.821289 257.870544,138.670593 255.232422,140.549072 252.583252,142.460327 249.927490,144.408508 247.269714,146.397461 244.614258,148.431213 241.965454,150.513672 239.327881,152.648804 236.705872,154.840393 234.103821,157.092651 231.526245,159.409302 228.977478,161.794373 226.461975,164.251770 223.984253,166.785461 221.548584,169.399353 219.159485,172.097534 216.821411,174.883728 214.538635,177.761902 212.315674,180.736145 210.157043,183.810364 208.066956,186.988403 206.050049,190.274231 204.110535,193.671814 202.253113,197.185181 200.481995,200.818115 198.801758,204.574829 197.047791,208.895874 195.484375,213.198486 194.104126,217.481628 192.899536,221.744202 191.863342,225.985168 190.988037,230.203491 190.266235,234.397949 189.690430,238.567627 189.253296,242.711365 188.947388,246.828186 188.765381,250.916870 188.699707,254.976501 188.743042,259.005920 188.888000,263.004211 189.127075,266.970032 189.453003,270.902588 189.858154,274.800537 190.335266,278.663086 190.876892,282.488892 191.475647,286.277100 192.124023,290.026611 192.814697,293.736206 193.540161,297.404968 194.293091,301.031860 195.065979,304.615662 195.851562,308.155396 196.642273,311.649963 197.430786,315.098267 198.209656,318.499268 198.971497,321.851990 199.708801,325.155212 200.414246,328.407959 201.080444,331.609070 201.699890,334.757568 202.265198,337.852356 202.768982,340.892395 203.203735,343.876465 203.562134,346.803711 203.836853,349.672913 204.020203,352.483093 204.105042,355.233032 204.083801,357.921875 203.949158,360.548401 203.693665,363.111633 203.309753,365.610413 202.790283,368.043701 202.127686,370.410461 201.314575,372.709534 200.343506,374.939941 199.207031,377.100647 197.897827,379.190430 196.408447,381.208374 194.731506,383.153320 192.859436,385.024231 190.785095,386.820068 188.500793,388.539673 185.999329,390.182068 183.273071,391.746155 180.314819,393.230835 177.117004,394.635071 173.672363,395.957703 169.973328,397.197754 166.012573,398.354187 161.782776,399.425842 157.863098,400.223145 154.035828,400.751465 150.302551,401.018005 146.665161,401.030090 143.125366,400.794922 139.684998,400.319885 136.345825,399.612061 133.109497,398.678894 129.977844,397.527649 126.952698,396.165527 124.035767,394.599792 121.228882,392.837830 118.533752,390.886719 115.952148,388.753906 113.485962,386.446655 111.136780,383.972168 108.906372,381.337646 106.796753,378.550476 104.809387,375.617981 102.946228,372.547302 101.209106,369.345764 99.599487,366.020691 98.119446,362.579224 96.770691,359.028748 95.554871,355.376526 94.473816,351.629822 93.529419,347.795898 92.723267,343.882019 92.057190,339.895447 91.533020,335.843506 91.152466,331.733459 90.917297,327.572449 90.829224,323.367920 90.890137,319.127136 91.101807,314.857178 91.465942,310.565552 91.984314,306.259399 92.658691,301.945984 93.490845,297.632629 94.482544,293.326599 95.635620,289.035217 96.951782,284.765625 98.432739,280.525208 100.080383,276.321228 101.896362,272.160889 103.882568,268.051453 106.040771,264.000366 108.372620,260.014648 110.879944,256.101807 113.564514,252.268982 116.428040,248.523376 111.099548,250.665161 105.938965,252.875427 100.944092,255.152466 96.112427,257.494568 91.441833,259.899902 86.929871,262.367004 82.574341,264.894104 78.372925,267.479431 74.323120,270.121399 70.422852,272.818237 66.669678,275.568298 63.061279,278.369873 59.595276,281.221313 56.269592,284.120850 53.081726,287.066833 50.029358,290.057556 47.110229,293.091370 44.321960,296.166565 41.662292,299.281494 39.128967,302.434326 36.719604,305.623535 34.431824,308.847290 32.263428,312.103943 30.211975,315.391907 28.275330,318.709412 26.450989,322.054749 24.736694,325.426147 23.130249,328.822083 21.629150,332.240784 20.231262,335.680603 18.934082,339.139709 17.735535,342.616638 16.633057,346.109558 15.624512,349.616760 14.707458,353.136536 13.879639,356.667297 13.138733,360.207336 12.482422,363.754883 11.908447,367.308289 11.414429,370.865906 10.998047,374.425964 10.656982,377.986816 10.388977,381.546753 10.191711,385.104065 10.062805,388.657227 10.000000,392.204285 10.000977,395.743774 10.063354,399.273865 10.184937,402.792847 10.363281,406.299072 10.596191,409.790955 10.881226,413.266663 11.216187,416.724609 11.598633,420.163025 12.026367,423.580200 12.497009,426.974548 13.008301,430.344299 13.557922,433.687805 14.143433,437.003357 14.762939,440.289185 15.840271,445.287903 17.090454,450.110229 18.506165,454.761169 20.080322,459.245911 21.805664,463.569397 23.675110,467.736816 25.681335,471.753174 27.817078,475.623535 30.075317,479.353088 32.448730,482.946777 34.930054,486.409729 37.512329,489.747009 40.188049,492.963745 42.950195,496.064941 45.791504,499.055725 48.704773,501.941162 51.682800,504.726318 54.718384,507.416260 57.804321,510.016113 60.933472,512.530884 64.098511,514.965698 67.292297,517.325562 70.507629,519.615662 73.737244,521.841003 76.974060,524.006653 80.210815,526.117737 83.440186,528.179321 86.655090,530.196411 89.848389,532.174194 93.012695,534.117676 96.140930,536.031921 99.225891,537.922058 102.260376,539.793091 105.237061,541.650146 108.148926,543.498352 110.988586,545.342712 113.748962,547.188293 116.422852,549.040222 119.002869,550.903503 121.482056,552.783325 123.853027,554.684631 126.108765,556.612610 128.241821,558.572266 130.245178,560.568665 132.111572,562.606934 133.833801,564.692200 135.404602,566.829407 136.816895,569.023682 138.063416,571.280151 139.136902,573.603882 140.574707,577.190186 141.932068,580.858459 143.212219,584.604370 144.418213,588.423462 145.553589,592.311401 146.621277,596.263794 147.624695,600.276489 148.567078,604.344849 149.451660,608.464722 150.281677,612.631592 151.060303,616.841187 151.790894,621.089111 152.476562,625.370972 153.120667,629.682495 153.726379,634.019287 154.296936,638.376953 154.835632,642.751160 155.345642,647.137451 155.830261,651.531616 156.292725,655.929260 156.736206,660.325989 157.164001,664.717407 157.579407,669.099121 157.985535,673.466919 158.385742,677.816284 158.783142,682.142944 159.181152,686.442627 159.582825,690.710693 159.991577,694.943115 160.410522,699.135254 160.842896,703.282837 161.291992,707.381592 161.761169,711.427002 162.253479,715.414917 162.772156,719.340759 163.320496,723.200317 163.901794,726.989136 164.519287,730.702881 165.176086,734.337280 165.875671,737.887817 166.620972,741.350220 167.415527,744.720093 168.262329,747.993103 169.164734,751.164917 170.126099,754.231079 171.149414,757.187256 172.238159,760.029175 173.395386,762.752441 174.624451,765.352661 175.928528,767.825317 176.674927,769.001892 177.644043,770.260010 178.829590,771.596558 180.224976,773.008362 181.823792,774.492249 183.619507,776.045044 185.605713,777.663452 187.775940,779.344482 190.123596,781.084778 192.642334,782.881226 195.325684,784.730713 198.167114,786.629883 201.160156,788.575806 204.298340,790.565063 207.575195,792.594604 210.984253,794.661133 214.519104,796.761658 218.173218,798.892822 221.940125,801.051575 225.813354,803.234619 229.786499,805.438843 233.852966,807.661072 238.006348,809.898010 242.240112,812.146667 246.547852,814.403748 250.923157,816.666016 255.359375,818.930420 259.850281,821.193665 264.389160,823.452637 268.969666,825.704102 273.585327,827.945007 278.229614,830.171997 282.896118,832.382019 287.578308,834.571777 292.269714,836.738281 296.963989,838.878113 301.654541,840.988220 306.334839,843.065430 310.998535,845.106506 315.639160,847.108337 320.250183,849.067627 324.825073,850.981323 329.357483,852.846191 333.840881,854.659058 338.268860,856.416687 342.634827,858.115967 346.932434,859.753662 351.155090,861.326660 355.296326,862.831665 359.349792,864.265625 363.308899,865.625366 367.167297,866.907593 370.918518,868.109131 374.555847,869.226929 378.073059,870.257568 381.463684,871.198120 384.721008,872.045288 387.838806,872.795898 390.810486,873.446777 393.629700,873.994751 396.289734,874.436646 398.784363,874.769165 401.107117,874.989258 402.140686,875.000000 403.410339,874.901123 404.908508,874.695068 406.627869,874.384644 408.560608,873.972412 410.700012,873.460938 413.037903,872.852905 415.567444,872.151001 418.280823,871.357910 421.170959,870.476196 424.230164,869.508423 427.451233,868.457397 430.826599,867.325684 434.348816,866.115845 438.010681,864.830688 441.804626,863.472656 445.723206,862.044556 449.758972,860.548950 453.904602,858.988525 458.152649,857.365845 462.495667,855.683594 466.926453,853.944458 471.437195,852.151001 476.020813,850.305847 480.669739,848.411682 485.376526,846.471191 490.133728,844.486938 494.934143,842.461609 499.770203,840.397827 504.634460,838.298218 509.519592,836.165405 514.418030,834.002136 519.322449,831.810913 524.225647,829.594482 529.119934,827.355347 533.997864,825.096313 538.852112,822.819946 543.675232,820.528809 548.459900,818.225708 553.198669,815.913086 557.883972,813.593750 562.508728,811.270325 567.065002,808.945374 571.545959,806.621582 575.943542,804.301514 580.250916,801.987915 584.460510,799.683350 588.564758,797.390503 592.556213,795.112061 596.427551,792.850525 600.171570,790.608643 603.780457,788.389038 607.246887,786.194336 610.563660,784.027100 613.723328,781.890137 616.718323,779.786011 619.541321,777.717285 622.184753,775.686646 624.641418,773.696777 626.903748,771.750305 628.964417,769.849854 630.815857,767.998047 632.450623,766.197571 633.861755,764.450989 635.041321,762.761047 635.982117,761.130310" />
				<polygon stroke="#000000" stroke-opacity="0.359997422" fill="none" stroke-linecap="round" stroke-width="20" points="635.982117,761.130249 637.225403,758.532227 638.391785,755.755249 639.484192,752.806763 640.505188,749.693848 641.457581,746.424072 642.343933,743.004639 643.166931,739.442871 643.929382,735.746216 644.633972,731.921875 645.283386,727.977295 645.880310,723.919739 646.427429,719.756592 646.927429,715.495117 647.382874,711.142639 647.796814,706.706604 648.171692,702.194214 648.510193,697.612915 648.815247,692.969971 649.089294,688.272705 649.335022,683.528564 649.555481,678.744629 649.752991,673.928528 649.930359,669.087463 650.090271,664.228760 650.235535,659.359680 650.368835,654.487732 650.492615,649.620117 650.609924,644.764160 650.723206,639.927246 650.835144,635.116760 650.948669,630.339966 651.066467,625.604126 651.190979,620.916748 651.325012,616.285034 651.471375,611.716309 651.632629,607.218018 651.811584,602.797363 652.010925,598.461792 652.233215,594.218506 652.481384,590.074951 652.757751,586.038452 653.065369,582.116272 653.406921,578.315796 653.784973,574.644409 654.202209,571.109375 654.661316,567.717896 655.165100,564.477539 655.716125,561.395569 656.317200,558.479248 656.971130,555.735962 657.680359,553.173096 658.447693,550.797852 659.275818,548.617615 660.167542,546.639771 661.125427,544.871521 663.355286,541.255310 665.642517,537.765991 667.982849,534.393066 670.371155,531.126099 672.803284,527.954773 675.274353,524.868469 677.779968,521.856812 680.315247,518.909363 682.875793,516.015686 685.457092,513.165283 688.054382,510.347778 690.662903,507.552673 693.278503,504.769531 695.896057,501.987915 698.511292,499.197388 701.119568,496.387573 703.716370,493.547852 706.296814,490.667847 708.856506,487.737183 711.390564,484.745361 713.894836,481.681946 716.364319,478.536499 718.794739,475.298523 721.181335,471.957642 723.519348,468.503357 725.804382,464.925293 728.031799,461.212891 730.196838,457.355774 732.295105,453.343567 733.157166,451.547485 734.006165,449.604919 734.838684,447.520874 735.652161,445.300232 736.443176,442.947937 737.209045,440.468872 737.946472,437.868103 738.652649,435.150452 739.324402,432.320801 739.958679,429.384155 740.552551,426.345459 741.102966,423.209595 741.606750,419.981567 742.060974,416.666199 742.462830,413.268494 742.808899,409.793396 743.096497,406.245667 743.322205,402.630554 743.483459,398.952698 743.576721,395.217102 743.599426,391.428833 743.548279,387.592651 743.420349,383.713562 743.212463,379.796509 742.921936,375.846436 742.545349,371.868164 742.079773,367.866699 741.522156,363.846985 740.869812,359.813965 740.119202,355.772461 739.267639,351.727478 738.311951,347.684021 737.249329,343.646851 736.076355,339.621094 734.790222,335.611572 733.387878,331.623230 731.866272,327.660889 730.222595,323.729614 728.453430,319.834351 726.555847,315.980042 724.527039,312.171448 722.363953,308.413635 720.063293,304.711548 717.622253,301.070007 715.037537,297.493958 712.306458,293.988525 709.425964,290.558350 706.392761,287.208618 703.203918,283.944153 699.856628,280.769714 696.347473,277.690552 692.673645,274.711426 688.832092,271.837219 684.819885,269.072998 680.633850,266.423584 676.270935,263.893921 671.728333,261.488953 667.002747,259.213684 662.091370,257.072937 656.990784,255.071472 659.422791,260.055298 661.660339,265.050842 663.706238,270.050659 665.562805,275.047424 667.233337,280.033691 668.720276,285.002014 670.026306,289.945068 671.154114,294.855347 672.106750,299.725525 672.886658,304.548157 673.496521,309.315918 673.939392,314.021240 674.217712,318.656860 674.334412,323.215393 674.292053,327.689331 674.093323,332.071289 673.741028,336.353882 673.238098,340.529724 672.586975,344.591431 671.790588,348.531494 670.851501,352.342590 669.772644,356.017395 668.556580,359.548279 667.205994,362.927979 665.723938,366.149170 664.112732,369.204285 662.375305,372.086060 660.514343,374.786926 658.532898,377.299561 656.433167,379.616638 654.218079,381.730652 651.890564,383.634277 649.453064,385.320007 646.908630,386.780396 644.259583,388.008301 641.509094,388.996094 638.659485,389.736389 635.713684,390.221863 632.674622,390.445007 629.544739,390.398499 626.326721,390.074951 623.023621,389.466858 619.637756,388.566895 616.172302,387.367676 612.629578,385.861694 609.012634,384.041748 605.652039,382.088257 602.614807,380.050781 599.889099,377.931091 597.463074,375.731140 595.324890,373.452942 593.462585,371.098389 591.864685,368.669495 590.519226,366.168152 589.414124,363.596313 588.537659,360.955933 587.878235,358.248901 587.423889,355.477295 587.162659,352.642944 587.082947,349.747864 587.172791,346.793884 587.420349,343.783142 587.813782,340.717407 588.341370,337.598694 588.991272,334.428955 589.751526,331.210144 590.610657,327.944153 591.556335,324.632996 592.576965,321.278564 593.660950,317.882812 594.795959,314.447754 595.970642,310.975281 597.172913,307.467285 598.391052,303.925781 599.613220,300.352722 600.827332,296.750000 602.022034,293.119629 603.185242,289.463440 604.304993,285.783569 605.369690,282.081848 606.367493,278.360168 607.286438,274.620544 608.114807,270.864868 608.840637,267.095215 609.452332,263.313416 609.937927,259.521362 610.285461,255.721191 610.483215,251.914734 610.519592,248.103882 610.382507,244.290649 610.060120,240.476929 609.540710,236.664795 608.812317,232.856079 607.863464,229.052734 606.681946,225.256775 605.255798,221.469971 603.675720,217.722168 602.037659,214.039490 600.340027,210.422302 598.581360,206.870911 596.760071,203.385498 594.874329,199.966553 592.922913,196.614197 590.904358,193.328918 588.816711,190.110840 586.658630,186.960449 584.428650,183.877869 582.125061,180.863464 579.746155,177.917603 577.290833,175.040649 574.757263,172.232727 572.143860,169.494141 569.449158,166.825378 566.671448,164.226562 563.809387,161.698120 560.861267,159.240295 557.825623,156.853394 554.700745,154.537781 551.485291,152.293640 548.177551,150.121338 544.775940,148.021240 541.279236,145.993591 537.685364,144.038635 533.993225,142.156799 530.200867,140.348328 526.307068,138.613525 522.310120,136.952637 518.208435,135.366089 514.000549,133.854065 509.684753,132.416992 505.259705,131.055054 500.723694,129.768616 496.075256,128.557983 491.312927,127.423401 493.609192,132.329529 495.689514,137.239990 497.557800,142.148071 499.217957,147.047424 500.673889,151.931458 501.929993,156.793640 502.989807,161.627563 503.857483,166.426636 504.537170,171.184509 505.032532,175.894409 505.347961,180.549988 505.487244,185.144775 505.454163,189.672180 505.253235,194.125793 504.887878,198.498962 504.362366,202.785278 503.680847,206.978210 502.846863,211.071167 501.864929,215.057800 500.738586,218.931580 499.472229,222.685852 498.069397,226.314270 496.534485,229.810242 494.871155,233.167236 493.083801,236.378784 491.176208,239.438416 489.152161,242.339600 487.015808,245.075745 484.771301,247.640442 482.422424,250.027161 479.973206,252.229431 477.427795,254.240662 474.790100,256.054382 472.063904,257.664185 469.253479,259.063354 466.362732,260.245483 463.395569,261.204163 460.356018,261.932739 457.248230,262.424805 454.075989,262.673767 450.843323,262.673157 447.554260,262.416565 444.212708,261.897278 440.822937,261.108948 437.388733,260.044983 433.914001,258.698975 430.402771,257.064331 426.859192,255.134583 422.698914,252.586304 418.875061,250.004944 415.376526,247.390625 412.191833,244.743591 409.310120,242.063843 406.720032,239.351746 404.410461,236.607239 402.370300,233.830566 400.587952,231.022034 399.052795,228.181519 397.753235,225.309387 396.678284,222.405701 395.816711,219.470703 395.157410,216.504395 394.688904,213.507141 394.400452,210.478943 394.280334,207.420044 394.317810,204.330566 394.501526,201.210632 394.820251,198.060425 395.262878,194.880188 395.818176,191.670044 396.475037,188.430054 397.222107,185.160461 398.048401,181.861328 398.942444,178.532898 399.893494,175.175293 400.889954,171.788818 401.920837,168.373413 402.975037,164.929321 404.041077,161.456726 405.107971,157.955750 406.164612,154.426514 407.199524,150.869385 408.201843,147.284180 409.160095,143.671326 410.063293,140.030945 410.900208,136.363037 411.659729,132.667969 412.330505,128.945679 412.901428,125.196533 413.361267,121.420593 413.698914,117.617981 413.903137,113.788879 413.962830,109.933533 413.866516,106.052063 413.603455,102.144531 413.162170,98.211121 412.531555,94.252075 411.927063,91.165466 411.250793,88.118164 410.498962,85.111267 409.667053,82.145569 408.751282,79.222168 407.747131,76.341736 406.650940,73.505493 405.458191,70.714233 404.164734,67.968872 402.766785,65.270447 401.259827,62.619812 399.639954,60.017944 397.903015,57.465881 396.044617,54.964355 394.060974,52.514465 391.947815,50.117065 389.700867,47.773132 387.316223,45.483643 384.789490,43.249390 382.116760,41.071472 379.293762,38.950806 376.316467,36.888306 373.180603,34.884888 369.882019,32.941467 366.416809,31.059082 362.780701,29.238586 358.969421,27.480896 354.978943,25.787048 350.805237,24.157898 346.444153,22.594482 341.891296,21.097656 337.142761,19.668457 332.194275,18.307739 327.041931,17.016235 321.681274,15.795288 316.108459,14.645752 310.319153,13.568237 304.309265,12.563965 298.074768,11.633911 291.611389,10.778931 284.914978,10.000000 288.004822,14.931885 290.871399,19.707642 293.519104,24.331055 295.952393,28.806213 298.175659,33.136963 300.193359,37.327148 302.009888,41.380859 303.629639,45.301941 305.057068,49.094360 306.296631,52.762146 307.352661,56.309143 308.229736,59.739441 308.932068,63.056702 309.464294,66.265015 309.830688,69.368469 310.035767,72.370789 310.083862,75.276001 309.979492,78.088013 309.726990,80.810852 309.330811,83.448425 308.795471,86.004578 308.125244,88.483276 307.324646,90.888550 306.398071,93.224365 305.349976,95.494507 304.184753,97.703003 302.906799,99.853821 301.520569,101.950928 300.030579,103.998108 298.441040,105.999512 296.756592,107.958923 294.981445,109.880310 293.120239,111.767700 291.177246,113.624939 289.156921,115.456055 287.063782,117.264832 284.902161,119.055359 282.676453,120.831543 280.391174,122.597290 278.050720,124.356628 275.659424,126.113281 273.221802,127.871521 270.742310,129.634949 268.225281,131.407776 265.675110,133.193787 263.096375,134.997009 260.493408,136.821289 257.870544,138.670593 255.232422,140.549072 252.583252,142.460327 249.927490,144.408508 247.269714,146.397461 244.614258,148.431213 241.965454,150.513672 239.327881,152.648804 236.705872,154.840393 234.103821,157.092651 231.526245,159.409302 228.977478,161.794373 226.461975,164.251770 223.984253,166.785461 221.548584,169.399353 219.159485,172.097534 216.821411,174.883728 214.538635,177.761902 212.315674,180.736145 210.157043,183.810364 208.066956,186.988403 206.050049,190.274231 204.110535,193.671814 202.253113,197.185181 200.481995,200.818115 198.801758,204.574829 197.047791,208.895874 195.484375,213.198486 194.104126,217.481628 192.899536,221.744202 191.863342,225.985168 190.988037,230.203491 190.266235,234.397949 189.690430,238.567627 189.253296,242.711365 188.947388,246.828186 188.765381,250.916870 188.699707,254.976501 188.743042,259.005920 188.888000,263.004211 189.127075,266.970032 189.453003,270.902588 189.858154,274.800537 190.335266,278.663086 190.876892,282.488892 191.475647,286.277100 192.124023,290.026611 192.814697,293.736206 193.540161,297.404968 194.293091,301.031860 195.065979,304.615662 195.851562,308.155396 196.642273,311.649963 197.430786,315.098267 198.209656,318.499268 198.971497,321.851990 199.708801,325.155212 200.414246,328.407959 201.080444,331.609070 201.699890,334.757568 202.265198,337.852356 202.768982,340.892395 203.203735,343.876465 203.562134,346.803711 203.836853,349.672913 204.020203,352.483093 204.105042,355.233032 204.083801,357.921875 203.949158,360.548401 203.693665,363.111633 203.309753,365.610413 202.790283,368.043701 202.127686,370.410461 201.314575,372.709534 200.343506,374.939941 199.207031,377.100647 197.897827,379.190430 196.408447,381.208374 194.731506,383.153320 192.859436,385.024231 190.785095,386.820068 188.500793,388.539673 185.999329,390.182068 183.273071,391.746155 180.314819,393.230835 177.117004,394.635071 173.672363,395.957703 169.973328,397.197754 166.012573,398.354187 161.782776,399.425842 157.863098,400.223145 154.035828,400.751465 150.302551,401.018005 146.665161,401.030090 143.125366,400.794922 139.684998,400.319885 136.345825,399.612061 133.109497,398.678894 129.977844,397.527649 126.952698,396.165527 124.035767,394.599792 121.228882,392.837830 118.533752,390.886719 115.952148,388.753906 113.485962,386.446655 111.136780,383.972168 108.906372,381.337646 106.796753,378.550476 104.809387,375.617981 102.946228,372.547302 101.209106,369.345764 99.599487,366.020691 98.119446,362.579224 96.770691,359.028748 95.554871,355.376526 94.473816,351.629822 93.529419,347.795898 92.723267,343.882019 92.057190,339.895447 91.533020,335.843506 91.152466,331.733459 90.917297,327.572449 90.829224,323.367920 90.890137,319.127136 91.101807,314.857178 91.465942,310.565552 91.984314,306.259399 92.658691,301.945984 93.490845,297.632629 94.482544,293.326599 95.635620,289.035217 96.951782,284.765625 98.432739,280.525208 100.080383,276.321228 101.896362,272.160889 103.882568,268.051453 106.040771,264.000366 108.372620,260.014648 110.879944,256.101807 113.564514,252.268982 116.428040,248.523376 111.099548,250.665161 105.938965,252.875427 100.944092,255.152466 96.112427,257.494568 91.441833,259.899902 86.929871,262.367004 82.574341,264.894104 78.372925,267.479431 74.323120,270.121399 70.422852,272.818237 66.669678,275.568298 63.061279,278.369873 59.595276,281.221313 56.269592,284.120850 53.081726,287.066833 50.029358,290.057556 47.110229,293.091370 44.321960,296.166565 41.662292,299.281494 39.128967,302.434326 36.719604,305.623535 34.431824,308.847290 32.263428,312.103943 30.211975,315.391907 28.275330,318.709412 26.450989,322.054749 24.736694,325.426147 23.130249,328.822083 21.629150,332.240784 20.231262,335.680603 18.934082,339.139709 17.735535,342.616638 16.633057,346.109558 15.624512,349.616760 14.707458,353.136536 13.879639,356.667297 13.138733,360.207336 12.482422,363.754883 11.908447,367.308289 11.414429,370.865906 10.998047,374.425964 10.656982,377.986816 10.388977,381.546753 10.191711,385.104065 10.062805,388.657227 10.000000,392.204285 10.000977,395.743774 10.063354,399.273865 10.184937,402.792847 10.363281,406.299072 10.596191,409.790955 10.881226,413.266663 11.216187,416.724609 11.598633,420.163025 12.026367,423.580200 12.497009,426.974548 13.008301,430.344299 13.557922,433.687805 14.143433,437.003357 14.762939,440.289185 15.840271,445.287903 17.090454,450.110229 18.506165,454.761169 20.080322,459.245911 21.805664,463.569397 23.675110,467.736816 25.681335,471.753174 27.817078,475.623535 30.075317,479.353088 32.448730,482.946777 34.930054,486.409729 37.512329,489.747009 40.188049,492.963745 42.950195,496.064941 45.791504,499.055725 48.704773,501.941162 51.682800,504.726318 54.718384,507.416260 57.804321,510.016113 60.933472,512.530884 64.098511,514.965698 67.292297,517.325562 70.507629,519.615662 73.737244,521.841003 76.974060,524.006653 80.210815,526.117737 83.440186,528.179321 86.655090,530.196411 89.848389,532.174194 93.012695,534.117676 96.140930,536.031921 99.225891,537.922058 102.260376,539.793091 105.237061,541.650146 108.148926,543.498352 110.988586,545.342712 113.748962,547.188293 116.422852,549.040222 119.002869,550.903503 121.482056,552.783325 123.853027,554.684631 126.108765,556.612610 128.241821,558.572266 130.245178,560.568665 132.111572,562.606934 133.833801,564.692200 135.404602,566.829407 136.816895,569.023682 138.063416,571.280151 139.136902,573.603882 140.574707,577.190186 141.932068,580.858459 143.212219,584.604370 144.418213,588.423462 145.553589,592.311401 146.621277,596.263794 147.624695,600.276489 148.567078,604.344849 149.451660,608.464722 150.281677,612.631592 151.060303,616.841187 151.790894,621.089111 152.476562,625.370972 153.120667,629.682495 153.726379,634.019287 154.296936,638.376953 154.835632,642.751160 155.345642,647.137451 155.830261,651.531616 156.292725,655.929260 156.736206,660.325989 157.164001,664.717407 157.579407,669.099121 157.985535,673.466919 158.385742,677.816284 158.783142,682.142944 159.181152,686.442627 159.582825,690.710693 159.991577,694.943115 160.410522,699.135254 160.842896,703.282837 161.291992,707.381592 161.761169,711.427002 162.253479,715.414917 162.772156,719.340759 163.320496,723.200317 163.901794,726.989136 164.519287,730.702881 165.176086,734.337280 165.875671,737.887817 166.620972,741.350220 167.415527,744.720093 168.262329,747.993103 169.164734,751.164917 170.126099,754.231079 171.149414,757.187256 172.238159,760.029175 173.395386,762.752441 174.624451,765.352661 175.928528,767.825317 176.674927,769.001892 177.644043,770.260010 178.829590,771.596558 180.224976,773.008362 181.823792,774.492249 183.619507,776.045044 185.605713,777.663452 187.775940,779.344482 190.123596,781.084778 192.642334,782.881226 195.325684,784.730713 198.167114,786.629883 201.160156,788.575806 204.298340,790.565063 207.575195,792.594604 210.984253,794.661133 214.519104,796.761658 218.173218,798.892822 221.940125,801.051575 225.813354,803.234619 229.786499,805.438843 233.852966,807.661072 238.006348,809.898010 242.240112,812.146667 246.547852,814.403748 250.923157,816.666016 255.359375,818.930420 259.850281,821.193665 264.389160,823.452637 268.969666,825.704102 273.585327,827.945007 278.229614,830.171997 282.896118,832.382019 287.578308,834.571777 292.269714,836.738281 296.963989,838.878113 301.654541,840.988220 306.334839,843.065430 310.998535,845.106506 315.639160,847.108337 320.250183,849.067627 324.825073,850.981323 329.357483,852.846191 333.840881,854.659058 338.268860,856.416687 342.634827,858.115967 346.932434,859.753662 351.155090,861.326660 355.296326,862.831665 359.349792,864.265625 363.308899,865.625366 367.167297,866.907593 370.918518,868.109131 374.555847,869.226929 378.073059,870.257568 381.463684,871.198120 384.721008,872.045288 387.838806,872.795898 390.810486,873.446777 393.629700,873.994751 396.289734,874.436646 398.784363,874.769165 401.107117,874.989258 402.140686,875.000000 403.410339,874.901123 404.908508,874.695068 406.627869,874.384644 408.560608,873.972412 410.700012,873.460938 413.037903,872.852905 415.567444,872.151001 418.280823,871.357910 421.170959,870.476196 424.230164,869.508423 427.451233,868.457397 430.826599,867.325684 434.348816,866.115845 438.010681,864.830688 441.804626,863.472656 445.723206,862.044556 449.758972,860.548950 453.904602,858.988525 458.152649,857.365845 462.495667,855.683594 466.926453,853.944458 471.437195,852.151001 476.020813,850.305847 480.669739,848.411682 485.376526,846.471191 490.133728,844.486938 494.934143,842.461609 499.770203,840.397827 504.634460,838.298218 509.519592,836.165405 514.418030,834.002136 519.322449,831.810913 524.225647,829.594482 529.119934,827.355347 533.997864,825.096313 538.852112,822.819946 543.675232,820.528809 548.459900,818.225708 553.198669,815.913086 557.883972,813.593750 562.508728,811.270325 567.065002,808.945374 571.545959,806.621582 575.943542,804.301514 580.250916,801.987915 584.460510,799.683350 588.564758,797.390503 592.556213,795.112061 596.427551,792.850525 600.171570,790.608643 603.780457,788.389038 607.246887,786.194336 610.563660,784.027100 613.723328,781.890137 616.718323,779.786011 619.541321,777.717285 622.184753,775.686646 624.641418,773.696777 626.903748,771.750305 628.964417,769.849854 630.815857,767.998047 632.450623,766.197571 633.861755,764.450989 635.041321,762.761047 635.982117,761.130310" />
			</g>
			<!--Layer: mid_contour-->
			<g id="mid_contour">
				<polygon fill="#00D5FE" stroke="none" fill-opacity="1" points="609.669495,748.297241 610.653381,746.203735 611.582581,743.883362 612.458801,741.344971 613.284241,738.597534 614.060608,735.649658 614.789734,732.510315 615.473572,729.188354 616.114075,725.692566 616.712830,722.031860 617.271912,718.215027 617.793396,714.250977 618.278748,710.148438 618.729919,705.916321 619.149109,701.563477 619.537903,697.098755 619.898132,692.531006 620.231873,687.869019 620.540955,683.121643 620.827087,678.297729 621.092346,673.406189 621.338562,668.455811 621.567444,663.455383 621.781189,658.413818 621.981262,653.340027 622.169861,648.242676 622.348694,643.130737 622.519714,638.013062 622.684631,632.898438 622.845642,627.795654 623.004456,622.713684 623.162659,617.661255 623.322571,612.647339 623.485901,607.680603 623.654602,602.770020 623.830261,597.924438 624.015076,593.152710 624.210632,588.463501 624.419006,583.865845 624.642151,579.368591 624.881653,574.980469 625.139587,570.710327 625.417786,566.567139 625.718201,562.559570 626.042542,558.696655 626.392883,554.987061 626.770813,551.439697 627.178406,548.063416 627.617615,544.867065 628.090149,541.859497 628.597961,539.049561 629.143005,536.446045 629.726746,534.057861 630.351624,531.893799 631.019226,529.962646 631.731262,528.273376 632.490051,526.834717 634.470398,523.695740 636.607849,520.629578 638.889221,517.629456 641.301819,514.688477 643.832458,511.799744 646.468445,508.956299 649.196716,506.151367 652.004578,503.378052 654.879089,500.629456 657.807190,497.898682 660.776062,495.178894 663.772888,492.463196 666.784729,489.744690 669.798767,487.016541 672.801819,484.271851 675.781189,481.503723 678.723938,478.705322 681.617371,475.869690 684.448181,472.989990 687.203918,470.059387 689.871155,467.070984 692.437439,464.017822 694.889709,460.893127 697.215149,457.689941 699.400818,454.401489 701.433655,451.020752 703.300842,447.541016 704.729431,444.666504 706.126038,441.761536 707.481750,438.821716 708.788269,435.843079 710.037048,432.821411 711.219543,429.752502 712.327209,426.632202 713.351501,423.456299 714.284119,420.220703 715.116272,416.921204 715.839417,413.553650 716.445374,410.113892 716.925354,406.597656 717.270935,403.000854 717.473450,399.319397 717.524475,395.548950 717.415588,391.685425 717.138245,387.724670 716.683777,383.662476 716.043762,379.494751 715.209534,375.217285 714.172791,370.825867 712.924988,366.316345 711.457581,361.684631 709.761902,356.926392 707.829651,352.037598 705.652039,347.014038 703.220764,341.851562 700.527283,336.546021 699.890930,342.579590 699.117004,348.377258 698.208435,353.941284 697.167664,359.274048 695.997375,364.377686 694.700134,369.254578 693.278870,373.907043 691.735901,378.337219 690.073914,382.547546 688.295593,386.540283 686.403625,390.317566 684.400574,393.881897 682.288879,397.235413 680.071472,400.380371 677.750916,403.319153 675.329651,406.054016 672.810608,408.587219 670.196106,410.921021 667.489075,413.057800 664.691833,414.999695 661.807190,416.749146 658.837708,418.308289 655.786316,419.679565 652.655090,420.865051 649.447083,421.867310 646.164856,422.688354 642.810974,423.330566 639.388000,423.796265 635.898621,424.087708 632.345520,424.207214 628.731262,424.157043 625.058533,423.939331 621.330017,423.556641 617.548157,423.011047 613.715637,422.304932 608.587830,421.094360 603.724304,419.616272 599.121277,417.885925 594.774963,415.918701 590.681458,413.729675 586.836853,411.334167 583.237610,408.747559 579.879456,405.985046 576.758728,403.061768 573.871643,399.993225 571.214417,396.794434 568.783020,393.480774 566.573914,390.067566 564.582947,386.570007 562.806458,383.003296 561.240540,379.382874 559.881287,375.723877 558.724915,372.041443 557.767639,368.351135 557.005676,364.667969 556.434998,361.007324 556.051941,357.384399 555.852356,353.814514 555.832947,350.312927 555.989319,346.894897 556.318054,343.575684 556.815125,340.370483 557.476624,337.294617 558.298645,334.363342 559.277649,331.592041 561.610779,325.542480 563.789490,319.655273 565.815002,313.926880 567.688660,308.353882 569.411926,302.932495 570.985657,297.659119 572.411560,292.530396 573.690613,287.542480 574.824280,282.691895 575.813782,277.975098 576.660339,273.388428 577.365417,268.928345 577.929993,264.591187 578.355530,260.373474 578.643372,256.271545 578.794739,252.281799 578.810852,248.400818 578.693054,244.624756 578.442566,240.950195 578.060730,237.373535 577.548889,233.891113 576.908020,230.499390 576.139832,227.194885 575.245300,223.973816 574.225769,220.832703 573.082581,217.767944 571.816956,214.775940 570.430237,211.853210 568.923523,208.995972 567.298401,206.200806 565.555969,203.464050 563.697571,200.782104 561.724182,198.151489 559.637634,195.568481 557.438782,193.029480 555.128967,190.531067 552.709656,188.069580 550.181824,185.641296 547.547180,183.242798 544.806580,180.870483 541.961609,178.520691 539.013367,176.189880 535.963196,173.874451 532.812439,171.570801 533.896912,176.799622 534.743713,181.937134 535.359558,186.981567 535.750793,191.931396 535.924011,196.784912 535.885803,201.540527 535.642517,206.196472 535.200623,210.751221 534.567078,215.203003 533.747986,219.550293 532.749817,223.791382 531.579407,227.924622 530.243103,231.948364 528.747620,235.860962 527.099060,239.660828 525.304260,243.346252 523.369690,246.915527 521.301819,250.367065 519.107239,253.699341 516.792419,256.910461 514.363831,259.998962 511.827942,262.963135 509.191589,265.801270 506.461121,268.511902 503.642761,271.093201 500.743347,273.543579 497.769348,275.861328 494.727234,278.044983 491.623718,280.092651 488.465027,282.002869 485.257874,283.773926 482.008606,285.404114 478.723816,286.891907 475.410217,288.235596 472.074158,289.433533 468.721985,290.484009 465.360535,291.385437 461.996277,292.136169 458.635437,292.734558 455.284851,293.179016 451.950989,293.467712 448.640198,293.599182 445.359192,293.571655 440.122498,293.236450 435.080750,292.592285 430.230896,291.654419 425.570496,290.438049 421.096863,288.958252 416.807190,287.230164 412.698792,285.268921 408.768982,283.089783 405.015198,280.707886 401.434509,278.138245 398.024597,275.396118 394.782288,272.496643 391.705139,269.454956 388.790588,266.286316 386.035583,263.005737 383.437805,259.628418 380.994202,256.169556 378.702454,252.644226 376.559631,249.067688 374.563049,245.455017 372.710144,241.821350 370.998108,238.181885 369.424133,234.551758 367.985901,230.946167 366.680237,227.380188 365.504944,223.869019 364.456848,220.427795 363.533630,217.071655 362.732361,213.815857 362.050476,210.675476 361.485291,207.665649 361.033997,204.801514 360.694031,202.098328 360.462585,199.571106 360.336975,197.235107 360.314514,195.105408 360.392639,193.197083 360.738342,189.270630 361.208191,185.370728 361.791809,181.497742 362.478455,177.652405 363.257751,173.835510 364.119080,170.047363 365.051941,166.288696 366.045715,162.560181 367.090027,158.862427 368.174133,155.195923 369.287659,151.561401 370.419983,147.959412 371.560608,144.390625 372.698914,140.855530 373.824524,137.354797 374.926697,133.889099 375.995178,130.458984 377.019104,127.065063 377.988098,123.708008 378.891663,120.388367 379.719299,117.106750 380.460266,113.863770 381.104065,110.660095 381.640198,107.496155 382.058289,104.372803 382.347717,101.290588 382.497742,98.250000 382.497986,95.251709 382.338074,92.296326 382.007141,89.384521 381.494812,86.516846 380.790710,83.693909 379.883972,80.916382 378.764221,78.184753 377.420959,75.499756 375.843567,72.861877 374.021545,70.271912 371.944275,67.730225 369.601379,65.237610 366.982239,62.794739 364.076355,60.401978 360.873108,58.060120 357.362000,55.769653 353.532532,53.531311 349.374084,51.345764 344.876160,49.213379 340.028198,47.134949 334.819763,45.111023 329.240173,43.142273 330.846069,48.040283 332.230469,52.767639 333.399170,57.329590 334.357727,61.731506 335.111816,65.978638 335.667175,70.076355 336.029480,74.030090 336.204285,77.844971 336.197327,81.526550 336.014282,85.079956 335.660828,88.510559 335.142578,91.823853 334.465210,95.024902 333.634521,98.119202 332.656006,101.112061 331.535278,104.008789 330.278320,106.814697 328.890442,109.535095 327.377502,112.175354 325.745239,114.740784 323.999146,117.236694 322.144897,119.668457 320.188293,122.041443 318.134888,124.360840 315.990417,126.632019 313.760498,128.860291 311.450867,131.051147 309.067078,133.209717 306.614868,135.341370 304.099915,137.451538 301.527893,139.545410 298.904480,141.628357 296.235229,143.705811 293.525940,145.782959 290.782166,147.865173 288.009644,149.957825 285.214111,152.066223 282.401062,154.195557 279.576294,156.351379 276.745483,158.538940 273.914185,160.763428 271.088135,163.030334 268.273071,165.344910 265.474487,167.712524 262.698181,170.138428 259.949829,172.628052 257.235046,175.186646 254.559448,177.819580 251.928833,180.532166 249.348755,183.329712 246.824951,186.217529 244.363098,189.200989 241.968750,192.285461 239.647705,195.476196 237.405457,198.778503 235.247925,202.197815 233.180603,205.739319 231.209412,209.408569 229.583435,212.738037 228.125244,216.071960 226.828979,219.409424 225.688538,222.749817 224.698059,226.092468 223.851440,229.436707 223.142822,232.781860 222.566162,236.127136 222.115540,239.472046 221.784851,242.815674 221.568298,246.157593 221.459839,249.497009 221.453430,252.833130 221.543213,256.165466 221.723145,259.493164 221.987244,262.815674 222.329590,266.132263 222.744141,269.442200 223.224915,272.744934 223.766052,276.039612 224.361511,279.325684 225.005249,282.602417 225.691406,285.869141 226.413940,289.125122 227.166931,292.369751 227.944336,295.602417 228.740173,298.822205 229.548523,302.028687 230.363464,305.221008 231.178894,308.398560 231.988831,311.560608 232.787537,314.706543 233.568787,317.835571 234.326660,320.947205 235.055298,324.040588 235.748596,327.115051 236.400513,330.170044 237.005371,333.204773 237.556946,336.218567 238.049316,339.210693 238.476501,342.180664 238.832581,345.127625 239.111572,348.050842 239.307434,350.949829 239.414246,353.823792 239.425964,356.672058 239.336731,359.493958 239.140564,362.288757 238.831360,365.055908 238.403259,367.794556 237.850281,370.504150 237.166382,373.183960 236.345642,375.833191 235.382080,378.451355 234.269653,381.037659 233.002563,383.591614 231.574646,386.112183 229.980103,388.598938 228.212708,391.051147 226.266785,393.468140 224.136169,395.849182 221.814880,398.193665 219.297058,400.500854 216.576660,402.770020 213.647766,405.000610 210.504211,407.191833 207.140259,409.343079 203.549866,411.453613 199.726990,413.522766 195.665771,415.549927 191.360107,417.534241 186.804138,419.475220 181.991760,421.372131 176.917175,423.224243 173.753906,424.277222 170.565247,425.222168 167.355469,426.057129 164.128784,426.779785 160.889343,427.388123 157.641541,427.880066 154.389526,428.253357 151.137573,428.505920 147.889893,428.635742 144.650757,428.640503 141.424316,428.518188 138.214905,428.266724 135.026672,427.883972 131.864014,427.367737 128.730957,426.715942 125.631897,425.926453 122.570984,424.997131 119.552612,423.925903 116.580750,422.710632 113.659851,421.349182 110.794067,419.839417 107.987732,418.179260 105.244934,416.366516 102.569946,414.399109 99.967163,412.274963 97.440613,409.991882 94.994690,407.547852 92.633484,404.940552 90.361389,402.168030 88.182556,399.228088 86.101257,396.118652 84.121765,392.837585 82.248169,389.382690 80.484863,385.752014 78.835999,381.943176 77.305786,377.954407 75.898621,373.783264 74.618591,369.427795 73.469971,364.885742 72.457092,360.155151 71.583984,355.233826 70.855103,350.119568 70.274536,344.810425 69.846619,339.304077 69.575562,333.598572 69.465576,327.691711 69.520935,321.581299 69.745850,315.265381 70.144531,308.741699 70.721252,302.008118 67.480347,306.995178 64.449036,311.916443 61.621826,316.772339 58.993286,321.563171 56.558105,326.289368 54.310669,330.951294 52.245544,335.549194 50.357361,340.083740 48.640686,344.555054 47.090027,348.963623 45.699890,353.309753 44.464905,357.593933 43.379517,361.816406 42.438354,365.977661 41.636047,370.078064 40.966980,374.117981 40.425781,378.097656 40.007080,382.017700 39.705322,385.878357 39.515076,389.680115 39.430908,393.423096 39.447327,397.107910 39.558960,400.734863 39.760376,404.304382 40.046021,407.816772 40.410461,411.272400 40.848328,414.671753 41.354187,418.015137 41.922424,421.302917 42.547729,424.535461 43.224731,427.713257 43.947754,430.836548 44.711487,433.905762 45.510437,436.921265 46.339294,439.883423 47.192444,442.792725 48.064453,445.649414 48.949890,448.453918 49.843384,451.206665 50.739502,453.907959 51.870728,456.920105 53.229431,459.898315 54.804749,462.843628 56.585876,465.757080 58.562073,468.639587 60.722473,471.492249 63.056213,474.315979 65.552612,477.111877 68.200806,479.880920 70.989929,482.624146 73.909241,485.342529 76.947876,488.037048 80.095093,490.708801 83.339966,493.358765 86.671814,495.987854 90.079773,498.597229 93.553040,501.187805 97.080688,503.760620 100.652100,506.316711 104.256348,508.857056 107.882629,511.382690 111.520203,513.894592 115.158203,516.393738 118.785767,518.881226 122.392151,521.358032 125.966614,523.825134 129.498169,526.283569 132.976196,528.734314 136.389709,531.178467 139.727966,533.616943 142.980286,536.050842 146.135620,538.481079 149.183350,540.908752 152.112549,543.334778 154.912476,545.760254 157.572327,548.186157 160.081238,550.613464 162.428406,553.043213 164.602966,555.476440 166.141052,557.441895 167.592163,559.634033 168.959534,562.043396 170.246521,564.660400 171.456299,567.475586 172.592163,570.479248 173.657410,573.661987 174.655396,577.014282 175.589294,580.526489 176.462524,584.189087 177.278198,587.992554 178.039734,591.927368 178.750366,595.984009 179.413452,600.152893 180.032166,604.424438 180.609802,608.789185 181.149719,613.237610 181.655151,617.760132 182.129395,622.347168 182.575745,626.989258 182.997498,631.676758 183.397827,636.400269 183.780212,641.150085 184.147705,645.916809 184.503845,650.690857 184.851746,655.462646 185.194641,660.222656 185.536072,664.961365 185.879028,669.669250 186.226990,674.336792 186.583191,678.954285 186.950806,683.512390 187.333313,688.001465 187.733765,692.411987 188.155762,696.734436 188.602295,700.959229 189.076721,705.076904 189.582397,709.077759 190.122559,712.952515 190.700562,716.691345 191.319580,720.284912 191.983032,723.723572 192.693970,726.997803 193.455872,730.098145 194.272034,733.014954 195.145691,735.738770 196.080078,738.260010 197.078552,740.569092 198.144409,742.656616 198.825806,743.707092 199.760254,744.875122 200.939392,746.156128 202.355164,747.545044 203.999084,749.037109 205.863037,750.627563 207.938782,752.311523 210.217957,754.084229 212.692383,755.940796 215.353699,757.876343 218.193726,759.886230 221.204163,761.965454 224.376831,764.109253 227.703369,766.312866 231.175598,768.571411 234.785217,770.880005 238.523926,773.234009 242.383545,775.628296 246.355774,778.058350 250.432373,780.519165 254.605042,783.005981 258.865601,785.513977 263.205688,788.038330 267.617065,790.574219 272.091553,793.116699 276.620850,795.661133 281.196655,798.202576 285.810730,800.736267 290.454834,803.257324 295.120728,805.760986 299.799988,808.242432 304.484619,810.696716 309.166199,813.119141 313.836426,815.504883 318.487122,817.848999 323.110046,820.146729 327.696899,822.393311 332.239441,824.583862 336.729431,826.713623 341.158508,828.777710 345.518494,830.771240 349.801086,832.689453 353.998230,834.527588 358.101257,836.280701 362.102356,837.944031 365.992859,839.512756 369.764832,840.982056 373.409851,842.347107 376.919617,843.603027 380.286072,844.745117 383.500671,845.768433 386.555359,846.668152 389.441833,847.439453 392.151917,848.077637 394.677063,848.577759 397.009338,848.935059 399.140320,849.144714 401.061829,849.201782 402.041321,849.128357 403.299377,848.929626 404.825989,848.609192 406.611145,848.170654 408.644958,847.617554 410.917053,846.953491 413.417786,846.182007 416.137024,845.306702 419.064758,844.331238 422.191101,843.259033 425.505798,842.093750 428.999207,840.839050 432.660950,839.498413 436.481384,838.075439 440.450256,836.573669 444.557556,834.996765 448.793396,833.348267 453.147766,831.631714 457.610535,829.850830 462.171936,828.008972 466.821838,826.109924 471.550232,824.157166 476.347107,822.154297 481.202332,820.104797 486.106140,818.012451 491.048523,815.880737 496.019348,813.713135 501.008484,811.513367 506.006287,809.285034 511.002502,807.031555 515.987122,804.756653 520.950378,802.463806 525.882019,800.156677 530.772156,797.838806 535.610657,795.513794 540.387756,793.185181 545.093323,790.856567 549.717224,788.531555 554.249573,786.213745 558.680481,783.906616 562.999817,781.613831 567.197571,779.338989 571.263733,777.085571 575.188538,774.857178 578.961609,772.657593 582.573181,770.490112 586.013123,768.358459 589.271545,766.266174 592.338562,764.216919 595.203796,762.214111 597.857483,760.261475 600.289734,758.362549 602.490295,756.520874 604.449402,754.740112 606.156799,753.023804 607.602722,751.375488 608.777039,749.798706 609.669739,748.297180" />
			</g>
			<!--Layer: background-->
			<g id="background">
				<polygon fill="#000000" stroke="none" fill-opacity="1" points="574.409973,723.111816 575.482971,720.825806 576.481873,718.316162 577.409607,715.592651 578.268860,712.664856 579.062317,709.542603 579.793274,706.235596 580.464050,702.753540 581.077820,699.106140 581.637146,695.303101 582.145081,691.354126 582.604309,687.268982 583.017639,683.057251 583.387878,678.728882 583.717957,674.293335 584.010681,669.760498 584.268738,665.140015 584.495178,660.441650 584.692566,655.674988 584.863953,650.849854 585.012024,645.975952 585.139465,641.062988 585.249451,636.120605 585.344543,631.158691 585.427795,626.186768 585.501770,621.214722 585.569275,616.252075 585.633484,611.308716 585.696838,606.394226 585.762390,601.518372 585.832947,596.690918 585.911072,591.921509 585.999939,587.219849 586.102112,582.595703 586.220642,578.058838 586.358093,573.618774 586.517517,569.285461 586.701599,565.068420 586.913147,560.977478 587.155090,557.022339 587.430115,553.212585 587.741272,549.558105 588.091248,546.068542 588.482727,542.753601 588.918762,539.623047 589.401917,536.686462 589.935364,533.953735 590.521667,531.434448 591.163635,529.138367 591.864319,527.075195 592.626282,525.254700 593.452576,523.686584 596.022400,519.573181 598.826233,515.417969 601.825867,511.241333 604.982727,507.063721 608.258484,502.905518 611.614685,498.787109 615.013123,494.729004 618.415100,490.751587 621.782654,486.875122 625.076965,483.120239 628.260071,479.507263 631.293152,476.056580 634.138123,472.788635 636.756409,469.723877 639.109558,466.882690 641.159485,464.285461 642.867737,461.952637 644.195496,459.904663 645.104919,458.161865 645.557312,456.744812 645.514465,455.673767 645.051086,455.068237 644.141785,454.601685 642.811096,454.252747 641.083069,453.999817 638.982239,453.821655 636.532776,453.696594 633.759338,453.603333 630.685852,453.520325 627.336853,453.426147 623.736755,453.299377 619.909851,453.118530 615.880310,452.862183 611.672668,452.508850 607.311340,452.037048 602.820496,451.425415 598.224548,450.652466 593.547668,449.696594 588.814514,448.536560 584.049133,447.150879 579.276062,445.518005 574.519348,443.616516 569.803894,441.424988 565.153503,438.921997 560.592712,436.085999 556.145813,432.895569 551.837341,429.329224 547.691467,425.365601 544.472839,421.781372 541.592468,418.013550 539.035095,414.077698 536.785583,409.989868 534.828796,405.765808 533.149353,401.421387 531.732239,396.972290 530.562317,392.434448 529.624451,387.823669 528.903381,383.155762 528.383850,378.446533 528.050720,373.711731 527.888977,368.967346 527.883240,364.229004 528.018494,359.512695 528.279480,354.834045 528.651062,350.208984 529.117981,345.653381 529.665222,341.182983 530.277527,336.813599 530.939758,332.561157 531.636536,328.441223 532.353088,324.469910 533.073792,320.662842 533.783752,317.035950 534.467834,313.604980 535.110657,310.385742 535.697083,307.394043 536.212219,304.645813 536.640564,302.156738 536.966980,299.942749 537.176575,298.019531 537.253845,296.403015 537.183899,295.109070 536.951233,294.153320 536.540833,293.551575 535.662537,293.111938 534.547302,293.035522 533.200745,293.294312 531.627869,293.860840 529.834412,294.707153 527.825256,295.805664 525.606140,297.128357 523.182068,298.647827 520.558655,300.335999 517.741150,302.165161 514.734924,304.107727 511.545105,306.135803 508.177307,308.221680 504.636658,310.337646 500.928772,312.455688 497.058655,314.548401 493.031799,316.587769 488.853577,318.546204 484.529480,320.395813 480.064392,322.108887 475.464050,323.657654 470.733704,325.014465 465.878601,326.151367 460.903992,327.040710 455.815613,327.654785 450.618225,327.965637 445.317810,327.945801 439.919250,327.567261 434.428040,326.802368 427.745911,325.512756 421.359680,324.036743 415.262512,322.382141 409.447571,320.556458 403.908142,318.567566 398.637268,316.423096 393.628235,314.130615 388.874329,311.697998 384.368591,309.132874 380.104187,306.442871 376.074524,303.635742 372.272522,300.719177 368.691589,297.700867 365.324768,294.588379 362.165344,291.389587 359.206360,288.112244 356.441223,284.763733 353.862976,281.352051 351.464783,277.884705 349.240051,274.369507 347.181702,270.814026 345.283020,267.226013 343.537292,263.613220 341.937561,259.983215 340.477112,256.343750 339.149109,252.702515 337.946777,249.067261 336.863281,245.445618 335.891724,241.845215 335.025391,238.273865 334.257507,234.739197 333.581177,231.248962 332.989563,227.810730 332.476013,224.432373 332.033569,221.121399 331.655457,217.885620 331.334900,214.732666 331.065063,211.670227 330.839172,208.705994 330.650269,205.847717 330.491821,203.103088 330.356750,200.479736 330.238403,197.985352 330.129883,195.627747 330.024475,193.414429 329.915222,191.353149 329.795471,189.451660 329.658325,187.717651 329.497009,186.158875 329.304688,184.782776 329.074585,183.597290 328.799805,182.609985 328.473633,181.828674 327.792114,180.941467 326.803711,180.269348 325.529846,179.813782 323.991760,179.575867 322.210693,179.557068 320.207947,179.758728 318.004822,180.182068 315.622681,180.828552 313.082703,181.699341 310.406189,182.795776 307.614441,184.119324 304.728760,185.671143 301.770447,187.452637 298.760742,189.465027 295.720947,191.709717 292.672302,194.188049 289.636230,196.901367 286.633850,199.850830 283.686584,203.037903 280.815674,206.463867 278.042358,210.129944 275.388000,214.037598 272.873779,218.188110 270.521118,222.582703 268.351257,227.222900 266.385376,232.109802 264.644836,237.244812 263.151001,242.629272 261.925049,248.264526 260.988342,254.151733 260.362061,260.292419 260.067627,266.687805 259.981018,273.139465 259.962708,279.318542 260.006714,285.235779 260.106995,290.901978 260.257629,296.327759 260.452576,301.523804 260.685791,306.500916 260.951416,311.269653 261.243347,315.840698 261.555664,320.224915 261.882324,324.432861 262.217346,328.475403 262.554810,332.362976 262.888611,336.106628 263.212769,339.716675 263.521362,343.204041 263.808411,346.579468 264.067871,349.853455 264.293701,353.036865 264.479980,356.140381 264.620667,359.174561 264.709839,362.150269 264.741455,365.078125 264.709595,367.968872 264.608093,370.833130 264.431152,373.681702 264.172668,376.525146 263.826721,379.374329 263.387207,382.239807 262.848206,385.132385 262.203796,388.062744 261.447876,391.041504 260.574463,394.079407 259.577637,397.187256 258.451355,400.375488 257.189636,403.655090 255.786438,407.036560 254.235901,410.530701 252.531860,414.148254 250.668457,417.899719 248.639587,421.795959 246.439392,425.847656 243.677734,430.443359 240.726562,434.631409 237.604004,438.434387 234.327881,441.874817 230.916199,444.975159 227.386719,447.757812 223.757568,450.245483 220.046631,452.460449 216.271667,454.425354 212.450806,456.162659 208.601929,457.694885 204.742920,459.044434 200.891785,460.233826 197.066406,461.285645 193.284729,462.222290 189.564575,463.066345 185.924133,463.840210 182.381042,464.566467 178.953430,465.267578 175.659119,465.966064 172.516113,466.684326 169.542297,467.444946 166.755615,468.270447 164.174072,469.183228 161.815430,470.205811 159.697693,471.360779 157.838867,472.670532 156.256836,474.157593 154.969543,475.844482 153.994873,477.753662 153.350769,479.907654 153.055298,482.328979 153.118835,483.673462 153.432617,484.877075 153.988037,485.982483 154.776489,487.032471 155.789368,488.069824 157.018188,489.137146 158.454346,490.277283 160.089294,491.532898 161.914429,492.946777 163.921326,494.561646 166.101196,496.420227 168.445618,498.565247 170.945984,501.039490 173.593750,503.885681 176.380432,507.146606 179.297241,510.864868 182.335815,515.083252 185.487549,519.844543 188.743835,525.191467 192.096130,531.166809 195.535889,537.813171 199.054504,545.173401 202.643372,553.290283 203.457214,555.383240 204.229065,557.727295 204.961609,560.310425 205.657288,563.120728 206.318665,566.146240 206.948120,569.375183 207.548340,572.795471 208.121765,576.395264 208.670898,580.162659 209.198303,584.085693 209.706482,588.152405 210.197876,592.350952 210.675171,596.669434 211.140808,601.095825 211.597229,605.618286 212.046997,610.224854 212.492676,614.903625 212.936768,619.642700 213.381714,624.430115 213.830200,629.253967 214.284546,634.102356 214.747437,638.963257 215.221252,643.824951 215.708618,648.675354 216.212036,653.502563 216.733948,658.294678 217.276917,663.039856 217.843567,667.726074 218.436279,672.341370 219.057556,676.873962 219.710022,681.311768 220.396179,685.643066 221.118469,689.855713 221.879456,693.937988 222.681702,697.877930 223.527588,701.663452 224.419800,705.282776 225.360840,708.723999 226.353027,711.975098 227.399109,715.024292 228.501526,717.859497 229.662781,720.468933 230.885376,722.840576 231.728638,724.130737 232.886902,725.553040 234.346985,727.100464 236.095581,728.765869 238.119568,730.542236 240.405701,732.422485 242.940857,734.399719 245.711670,736.466797 248.705017,738.616577 251.907654,740.842041 255.306396,743.136230 258.887939,745.492065 262.639160,747.902405 266.546875,750.360291 270.597778,752.858643 274.778687,755.390381 279.076416,757.948486 283.477722,760.525879 287.969360,763.115479 292.538269,765.710327 297.171021,768.303345 301.854492,770.887390 306.575500,773.455505 311.320801,776.000610 316.077271,778.515625 320.831482,780.993530 325.570435,783.427307 330.280762,785.809814 334.949341,788.134094 339.562927,790.393066 344.108337,792.579590 348.572327,794.686707 352.941711,796.707336 357.203308,798.634460 361.343689,800.460938 365.349915,802.179749 369.208557,803.783936 372.906555,805.266357 376.430725,806.619995 379.767639,807.837769 382.904236,808.912598 385.827332,809.837524 388.523621,810.605408 390.979919,811.209290 393.183044,811.641968 395.119812,811.896545 396.776794,811.965820 397.902405,811.878113 399.329285,811.650757 401.044983,811.288086 403.036438,810.794678 405.291443,810.174927 407.797058,809.433105 410.540833,808.573792 413.509949,807.601318 416.691956,806.520142 420.074158,805.334656 423.643860,804.049316 427.388489,802.668518 431.295349,801.196655 435.351868,799.638123 439.545349,797.997437 443.863220,796.278931 448.292664,794.487061 452.821228,792.626221 457.436218,790.700928 462.125183,788.715454 466.875061,786.674255 471.673401,784.581848 476.507751,782.442505 481.365295,780.260742 486.233459,778.041016 491.099548,775.787598 495.950989,773.505066 500.775085,771.197693 505.559143,768.869995 510.290588,766.526367 514.956848,764.171265 519.545227,761.808960 524.043030,759.444092 528.437805,757.080872 532.716736,754.723877 536.867126,752.377380 540.876526,750.045898 544.732239,747.733887 548.421448,745.445679 551.931824,743.185730 555.250549,740.958435 558.365051,738.768250 561.262390,736.619507 563.930359,734.516724 566.356140,732.464294 568.527161,730.466614 570.430603,728.528076 572.053894,726.653198 573.384583,724.846252 574.409851,723.111755" />
			</g>
			<!--Layer: scull-->
			<g id="scull">
				<polygon fill="#FEFEFE" stroke="none" fill-opacity="1" points="441.624695,788.376953 443.641785,788.328186 446.480408,787.801270 449.998474,786.853271 454.053894,785.541504 458.504578,783.923096 463.208435,782.055298 468.023499,779.995361 472.807678,777.800415 477.418884,775.527710 481.715027,773.234436 485.554138,770.977844 488.794128,768.815125 491.292664,766.803467 492.908142,765.000122 493.623840,763.419678 494.072571,761.274536 494.281677,758.617188 494.278625,755.500427 494.091003,751.976929 493.745911,748.099365 493.271057,743.920532 492.693787,739.492981 492.041321,734.869507 491.341492,730.102783 490.621521,725.245483 489.908752,720.350281 489.230774,715.469971 488.614929,710.657104 488.088684,705.964539 487.679504,701.444885 487.414612,697.150818 487.321838,693.135010 487.428284,689.450317 487.761536,686.149231 488.431946,684.806641 490.003967,683.200134 492.350525,681.352722 495.344177,679.287231 498.858215,677.026611 502.765442,674.593628 506.938538,672.011353 511.250549,669.302490 515.574524,666.490112 519.783020,663.596985 523.749207,660.645996 527.345886,657.660095 530.445862,654.662170 532.922180,651.675049 534.647522,648.721680 535.495056,645.824951 535.905823,642.352173 536.266907,638.751343 536.579407,635.028809 536.844543,631.191284 537.063660,627.244995 537.237854,623.196777 537.368103,619.052979 537.455872,614.820068 537.502258,610.504700 537.508484,606.113281 537.475647,601.652344 537.405090,597.128418 537.297913,592.548035 537.155212,587.917664 536.978210,583.243896 536.768250,578.533203 536.526306,573.792114 536.253845,569.027100 535.951843,564.244751 535.621399,559.451416 535.263977,554.653809 534.880554,549.858398 534.472473,545.071655 534.040833,540.300110 533.586853,535.550232 533.111511,530.828674 532.616394,526.141785 532.102600,521.496155 531.570984,516.898315 531.023010,512.354797 530.459778,507.872070 529.882507,503.456604 529.292542,499.114990 528.690735,494.853760 528.078430,490.679382 527.457092,486.598389 526.827576,482.617249 526.191101,478.742554 525.549011,474.980774 524.902161,471.338440 524.252136,467.822021 523.600159,464.438171 522.946960,461.193176 522.294006,458.093811 521.642517,455.146362 520.993713,452.357483 520.348694,449.733704 519.708679,447.281372 519.074768,445.007202 518.448181,442.917603 517.830383,441.019043 516.956726,438.683533 515.897766,436.257324 514.659119,433.747498 513.246399,431.161255 511.665222,428.505737 509.921204,425.788025 508.020203,423.015381 505.967590,420.194946 503.768982,417.333740 501.429993,414.439087 498.956482,411.518005 496.354065,408.577698 493.627991,405.625427 490.784241,402.668152 487.828430,399.713135 484.766174,396.767517 481.602966,393.838379 478.344543,390.932983 474.996399,388.058411 471.564392,385.221802 468.053894,382.430359 464.470886,379.691223 460.820618,377.011536 457.108948,374.398438 453.341370,371.859131 449.523621,369.400696 445.661316,367.030334 441.760071,364.755188 437.825500,362.582397 433.863098,360.519043 429.878967,358.572449 425.878113,356.749573 421.866516,355.057739 417.849915,353.504028 413.833679,352.095459 409.823425,350.839417 405.825012,349.743042 401.843811,348.813232 397.885803,348.057373 393.956238,347.482483 390.060974,347.095825 386.205505,346.904480 382.395691,346.915771 380.399841,347.060669 378.210388,347.377869 375.838684,347.862793 373.295959,348.511108 370.593323,349.318542 367.742126,350.280762 364.753601,351.393372 361.638855,352.652039 358.409241,354.052429 355.075745,355.590210 351.649963,357.261047 348.142883,359.060608 344.565857,360.984436 340.929871,363.028320 337.246338,365.187866 333.526550,367.458740 329.781616,369.836609 326.022766,372.317017 322.261292,374.895874 318.508240,377.568542 314.775146,380.330811 311.072998,383.178345 307.413025,386.106873 303.806580,389.111938 300.264771,392.189270 296.798889,395.334412 293.420166,398.543091 290.139832,401.811035 286.969055,405.133728 283.919128,408.506958 281.001160,411.926514 278.226501,415.387695 275.606384,418.886414 273.152039,422.418335 270.874451,425.978943 268.785217,429.564026 266.895264,433.169250 265.216003,436.790222 263.758606,440.422607 262.534241,444.062073 261.691956,446.997131 260.884949,450.122192 260.112732,453.428589 259.374695,456.907532 258.670288,460.550415 257.998779,464.348633 257.359741,468.293213 256.752502,472.375793 256.176514,476.587524 255.631165,480.919678 255.115784,485.363647 254.629883,489.910706 254.172913,494.552185 253.744141,499.279419 253.343079,504.083740 252.969116,508.956360 252.621643,513.888672 252.300110,518.871948 252.003906,523.897522 251.732422,528.956726 251.485046,534.040833 251.261230,539.141174 251.060425,544.249084 250.881958,549.355774 250.725281,554.452759 250.589783,559.531128 250.474915,564.582275 250.380066,569.597534 250.304565,574.568298 250.247986,579.485718 250.209595,584.341187 250.188904,589.126038 250.185242,593.831543 250.198059,598.449097 250.226746,602.969849 250.270691,607.385254 250.329407,611.686584 250.402161,615.865112 250.488525,619.912231 250.587769,623.819153 250.699402,627.577271 250.822754,631.177856 250.957275,634.612305 251.102356,637.871765 251.257446,640.947632 251.421814,643.831299 251.595154,646.514038 251.776611,648.987061 251.965698,651.241760 252.161804,653.269470 252.364380,655.061401 252.572754,656.609009 252.786499,657.903442 253.904297,661.355103 255.887390,664.815979 258.592957,668.256226 261.877930,671.645996 265.599426,674.955444 269.614502,678.154907 273.780212,681.214355 277.953674,684.104126 281.991943,686.794373 285.752075,689.255188 289.091125,691.456909 291.866211,693.369507 293.934387,694.963379 295.152710,696.208557 296.637817,699.025146 297.663757,702.475098 298.286011,706.455078 298.559692,710.861877 298.540344,715.592285 298.283264,720.543091 297.843689,725.610962 297.277039,730.692627 296.638672,735.685059 295.983826,740.484741 295.367981,744.988647 294.846375,749.093445 294.474304,752.695923 294.307251,755.692810 294.400452,757.980896 294.809326,759.456909 296.013062,760.818604 298.305115,762.706848 301.502686,765.004700 305.422974,767.595459 309.883240,770.362366 314.700684,773.188660 319.692566,775.957520 324.676025,778.552246 329.468384,780.856140 333.886841,782.752319 337.748596,784.124023 340.870850,784.854553 343.070862,784.827148 344.393250,783.856812 345.604431,781.785400 346.718567,778.771118 347.749817,774.972168 348.711975,770.546753 349.619324,765.653198 350.485901,760.449768 351.325745,755.094727 352.152771,749.746216 352.981384,744.562561 353.825378,739.701965 354.698914,735.322754 355.616028,731.583130 356.590759,728.641357 357.637268,726.655579 358.769592,725.784180 359.699646,726.199341 360.459778,727.797729 361.072815,730.428772 361.560852,733.942139 361.946350,738.187500 362.251648,743.014404 362.499329,748.272339 362.711609,753.811035 362.910950,759.480103 363.119690,765.128967 363.360291,770.607300 363.655090,775.764832 364.026428,780.450989 364.496887,784.515381 365.088806,787.807678 365.824402,790.177429 366.726257,791.474243 370.619690,794.113525 374.404236,796.367432 378.123474,798.246704 381.821228,799.762207 385.540955,800.924866 389.326477,801.745544 393.221252,802.234985 397.268982,802.404236 401.513367,802.264038 405.998108,801.825317 410.766785,801.098877 415.862976,800.095581 416.709778,799.345154 417.401550,797.575378 417.956116,794.906433 418.391663,791.458618 418.726257,787.352173 418.977844,782.707275 419.164368,777.644104 419.304016,772.282959 419.414734,766.744019 419.514465,761.147461 419.621399,755.613647 419.753479,750.262634 419.928772,745.214722 420.165100,740.590088 420.480774,736.509033 420.893738,733.091797 421.421936,730.458496 422.083435,728.729370 422.896179,728.024597 424.230164,728.397095 425.407410,729.900818 426.453308,732.389038 427.393494,735.714966 428.253601,739.731812 429.058899,744.292603 429.835266,749.250610 430.608093,754.459106 431.403015,759.771057 432.245667,765.039795 433.161438,770.118408 434.175964,774.860229 435.314758,779.118286 436.603577,782.745789 438.067688,785.595947 439.732849,787.521912 441.624695,788.376953" />
				<polygon stroke="#000000" stroke-opacity="0.360000491" fill="none" stroke-linecap="round" stroke-width="20" points="441.624695,788.376953 443.641785,788.328186 446.480408,787.801270 449.998474,786.853271 454.053894,785.541504 458.504578,783.923096 463.208435,782.055298 468.023499,779.995361 472.807678,777.800415 477.418884,775.527710 481.715027,773.234436 485.554138,770.977844 488.794128,768.815125 491.292664,766.803467 492.908142,765.000122 493.623840,763.419678 494.072571,761.274536 494.281677,758.617188 494.278625,755.500427 494.091003,751.976929 493.745911,748.099365 493.271057,743.920532 492.693787,739.492981 492.041321,734.869507 491.341492,730.102783 490.621521,725.245483 489.908752,720.350281 489.230774,715.469971 488.614929,710.657104 488.088684,705.964539 487.679504,701.444885 487.414612,697.150818 487.321838,693.135010 487.428284,689.450317 487.761536,686.149231 488.431946,684.806641 490.003967,683.200134 492.350525,681.352722 495.344177,679.287231 498.858215,677.026611 502.765442,674.593628 506.938538,672.011353 511.250549,669.302490 515.574524,666.490112 519.783020,663.596985 523.749207,660.645996 527.345886,657.660095 530.445862,654.662170 532.922180,651.675049 534.647522,648.721680 535.495056,645.824951 535.905823,642.352173 536.266907,638.751343 536.579407,635.028809 536.844543,631.191284 537.063660,627.244995 537.237854,623.196777 537.368103,619.052979 537.455872,614.820068 537.502258,610.504700 537.508484,606.113281 537.475647,601.652344 537.405090,597.128418 537.297913,592.548035 537.155212,587.917664 536.978210,583.243896 536.768250,578.533203 536.526306,573.792114 536.253845,569.027100 535.951843,564.244751 535.621399,559.451416 535.263977,554.653809 534.880554,549.858398 534.472473,545.071655 534.040833,540.300110 533.586853,535.550232 533.111511,530.828674 532.616394,526.141785 532.102600,521.496155 531.570984,516.898315 531.023010,512.354797 530.459778,507.872070 529.882507,503.456604 529.292542,499.114990 528.690735,494.853760 528.078430,490.679382 527.457092,486.598389 526.827576,482.617249 526.191101,478.742554 525.549011,474.980774 524.902161,471.338440 524.252136,467.822021 523.600159,464.438171 522.946960,461.193176 522.294006,458.093811 521.642517,455.146362 520.993713,452.357483 520.348694,449.733704 519.708679,447.281372 519.074768,445.007202 518.448181,442.917603 517.830383,441.019043 516.956726,438.683533 515.897766,436.257324 514.659119,433.747498 513.246399,431.161255 511.665222,428.505737 509.921204,425.788025 508.020203,423.015381 505.967590,420.194946 503.768982,417.333740 501.429993,414.439087 498.956482,411.518005 496.354065,408.577698 493.627991,405.625427 490.784241,402.668152 487.828430,399.713135 484.766174,396.767517 481.602966,393.838379 478.344543,390.932983 474.996399,388.058411 471.564392,385.221802 468.053894,382.430359 464.470886,379.691223 460.820618,377.011536 457.108948,374.398438 453.341370,371.859131 449.523621,369.400696 445.661316,367.030334 441.760071,364.755188 437.825500,362.582397 433.863098,360.519043 429.878967,358.572449 425.878113,356.749573 421.866516,355.057739 417.849915,353.504028 413.833679,352.095459 409.823425,350.839417 405.825012,349.743042 401.843811,348.813232 397.885803,348.057373 393.956238,347.482483 390.060974,347.095825 386.205505,346.904480 382.395691,346.915771 380.399841,347.060669 378.210388,347.377869 375.838684,347.862793 373.295959,348.511108 370.593323,349.318542 367.742126,350.280762 364.753601,351.393372 361.638855,352.652039 358.409241,354.052429 355.075745,355.590210 351.649963,357.261047 348.142883,359.060608 344.565857,360.984436 340.929871,363.028320 337.246338,365.187866 333.526550,367.458740 329.781616,369.836609 326.022766,372.317017 322.261292,374.895874 318.508240,377.568542 314.775146,380.330811 311.072998,383.178345 307.413025,386.106873 303.806580,389.111938 300.264771,392.189270 296.798889,395.334412 293.420166,398.543091 290.139832,401.811035 286.969055,405.133728 283.919128,408.506958 281.001160,411.926514 278.226501,415.387695 275.606384,418.886414 273.152039,422.418335 270.874451,425.978943 268.785217,429.564026 266.895264,433.169250 265.216003,436.790222 263.758606,440.422607 262.534241,444.062073 261.691956,446.997131 260.884949,450.122192 260.112732,453.428589 259.374695,456.907532 258.670288,460.550415 257.998779,464.348633 257.359741,468.293213 256.752502,472.375793 256.176514,476.587524 255.631165,480.919678 255.115784,485.363647 254.629883,489.910706 254.172913,494.552185 253.744141,499.279419 253.343079,504.083740 252.969116,508.956360 252.621643,513.888672 252.300110,518.871948 252.003906,523.897522 251.732422,528.956726 251.485046,534.040833 251.261230,539.141174 251.060425,544.249084 250.881958,549.355774 250.725281,554.452759 250.589783,559.531128 250.474915,564.582275 250.380066,569.597534 250.304565,574.568298 250.247986,579.485718 250.209595,584.341187 250.188904,589.126038 250.185242,593.831543 250.198059,598.449097 250.226746,602.969849 250.270691,607.385254 250.329407,611.686584 250.402161,615.865112 250.488525,619.912231 250.587769,623.819153 250.699402,627.577271 250.822754,631.177856 250.957275,634.612305 251.102356,637.871765 251.257446,640.947632 251.421814,643.831299 251.595154,646.514038 251.776611,648.987061 251.965698,651.241760 252.161804,653.269470 252.364380,655.061401 252.572754,656.609009 252.786499,657.903442 253.904297,661.355103 255.887390,664.815979 258.592957,668.256226 261.877930,671.645996 265.599426,674.955444 269.614502,678.154907 273.780212,681.214355 277.953674,684.104126 281.991943,686.794373 285.752075,689.255188 289.091125,691.456909 291.866211,693.369507 293.934387,694.963379 295.152710,696.208557 296.637817,699.025146 297.663757,702.475098 298.286011,706.455078 298.559692,710.861877 298.540344,715.592285 298.283264,720.543091 297.843689,725.610962 297.277039,730.692627 296.638672,735.685059 295.983826,740.484741 295.367981,744.988647 294.846375,749.093445 294.474304,752.695923 294.307251,755.692810 294.400452,757.980896 294.809326,759.456909 296.013062,760.818604 298.305115,762.706848 301.502686,765.004700 305.422974,767.595459 309.883240,770.362366 314.700684,773.188660 319.692566,775.957520 324.676025,778.552246 329.468384,780.856140 333.886841,782.752319 337.748596,784.124023 340.870850,784.854553 343.070862,784.827148 344.393250,783.856812 345.604431,781.785400 346.718567,778.771118 347.749817,774.972168 348.711975,770.546753 349.619324,765.653198 350.485901,760.449768 351.325745,755.094727 352.152771,749.746216 352.981384,744.562561 353.825378,739.701965 354.698914,735.322754 355.616028,731.583130 356.590759,728.641357 357.637268,726.655579 358.769592,725.784180 359.699646,726.199341 360.459778,727.797729 361.072815,730.428772 361.560852,733.942139 361.946350,738.187500 362.251648,743.014404 362.499329,748.272339 362.711609,753.811035 362.910950,759.480103 363.119690,765.128967 363.360291,770.607300 363.655090,775.764832 364.026428,780.450989 364.496887,784.515381 365.088806,787.807678 365.824402,790.177429 366.726257,791.474243 370.619690,794.113525 374.404236,796.367432 378.123474,798.246704 381.821228,799.762207 385.540955,800.924866 389.326477,801.745544 393.221252,802.234985 397.268982,802.404236 401.513367,802.264038 405.998108,801.825317 410.766785,801.098877 415.862976,800.095581 416.709778,799.345154 417.401550,797.575378 417.956116,794.906433 418.391663,791.458618 418.726257,787.352173 418.977844,782.707275 419.164368,777.644104 419.304016,772.282959 419.414734,766.744019 419.514465,761.147461 419.621399,755.613647 419.753479,750.262634 419.928772,745.214722 420.165100,740.590088 420.480774,736.509033 420.893738,733.091797 421.421936,730.458496 422.083435,728.729370 422.896179,728.024597 424.230164,728.397095 425.407410,729.900818 426.453308,732.389038 427.393494,735.714966 428.253601,739.731812 429.058899,744.292603 429.835266,749.250610 430.608093,754.459106 431.403015,759.771057 432.245667,765.039795 433.161438,770.118408 434.175964,774.860229 435.314758,779.118286 436.603577,782.745789 438.067688,785.595947 439.732849,787.521912 441.624695,788.376953" />
			</g>
			<!--Layer: eyes-->
			<g id="eyes">
				<polygon fill="#000000" stroke="none" fill-opacity="1" points="304.874451,450.498718 304.233582,450.739197 303.613770,451.446655 303.015137,452.600037 302.437378,454.178406 301.880432,456.160706 301.344116,458.526062 300.828369,461.253418 300.333008,464.321777 299.857849,467.710144 299.402771,471.397522 298.967712,475.363037 298.552490,479.585510 298.156982,484.044128 297.781006,488.717773 297.424438,493.585510 297.087219,498.626343 296.769104,503.819336 296.470093,509.143372 296.189880,514.577576 295.928467,520.100891 295.685669,525.692383 295.461304,531.330994 295.255249,536.995789 295.067383,542.665771 294.897644,548.319946 294.745850,553.937317 294.611816,559.496887 294.495361,564.977661 294.396484,570.358643 294.315002,575.618896 294.250732,580.737427 294.203674,585.693176 294.173462,590.465210 294.160095,595.032593 294.163513,599.374146 294.183350,603.469116 294.219727,607.296265 294.272339,610.834839 294.341125,614.063721 294.425964,616.961914 294.526611,619.508423 294.643005,621.682373 294.775085,623.462708 294.922485,624.828491 295.717163,627.121887 297.423218,629.487793 299.933472,631.900024 303.140259,634.332397 306.936340,636.758789 311.214172,639.152954 315.866333,641.488708 320.785400,643.739868 325.863953,645.880371 330.994629,647.883911 336.069824,649.724487 340.982239,651.375793 345.624329,652.811646 349.888855,654.005859 353.668152,654.932373 356.854919,655.564941 359.341736,655.877441 361.021179,655.843628 361.785583,655.437378 362.127625,654.364136 362.346375,652.949585 362.445740,651.207397 362.429871,649.151306 362.302917,646.795105 362.068787,644.152588 361.731628,641.237549 361.295593,638.063782 360.764832,634.644897 360.143250,630.994873 359.434998,627.127319 358.644104,623.056030 357.774719,618.794922 356.830872,614.357544 355.816711,609.757812 354.736267,605.009460 353.593689,600.126282 352.392883,595.122070 351.138000,590.010498 349.833313,584.805359 348.482605,579.520508 347.090271,574.169556 345.660095,568.766541 344.196228,563.324951 342.702881,557.858765 341.184021,552.381592 339.643799,546.907349 338.086243,541.449707 336.515442,536.022400 334.935486,530.639282 333.350403,525.314148 331.764343,520.060730 330.181396,514.892761 328.605530,509.824036 327.040955,504.868347 325.491638,500.039429 323.961792,495.351074 322.455383,490.817078 320.976501,486.451233 319.529297,482.267151 318.117798,478.278809 316.746155,474.499817 315.418274,470.944031 314.138428,467.625183 312.910522,464.557068 311.738831,461.753418 310.627258,459.228088 309.580017,456.994812 308.601074,455.067261 307.694580,453.459351 306.864563,452.184753 306.115173,451.257263 305.450439,450.690674 304.874512,450.498779" />
				<polygon fill="#000000" stroke="none" fill-opacity="1" points="466.402161,455.086731 466.005920,455.367371 465.526917,456.054382 464.968811,457.131836 464.335510,458.583862 463.630554,460.394348 462.858093,462.547546 462.021790,465.027344 461.125671,467.817871 460.173157,470.903076 459.168396,474.267273 458.115173,477.894226 457.017273,481.768127 455.878601,485.872986 454.702820,490.192871 453.493835,494.711914 452.255554,499.414001 450.991760,504.283386 449.706116,509.303955 448.402649,514.459839 447.085144,519.735046 445.757385,525.113647 444.423157,530.579773 443.086487,536.117310 441.750916,541.710510 440.420471,547.343262 439.098938,552.999756 437.790100,558.663879 436.497742,564.319824 435.225891,569.951660 433.978210,575.543274 432.758484,581.078857 431.570618,586.542419 430.418396,591.918091 429.305725,597.189819 428.236267,602.341675 427.214050,607.357666 426.242737,612.222046 425.326355,616.918640 424.468567,621.431641 423.673157,625.744995 422.944153,629.842896 422.285095,633.709290 421.700012,637.328247 421.192810,640.683838 420.767029,643.760132 420.426697,646.541138 420.175720,649.010925 420.017761,651.153564 419.956482,652.953125 419.996155,654.393555 420.140320,655.458984 420.392761,656.133545 420.757385,656.401123 422.856018,656.407715 425.564026,655.962280 428.804626,655.106506 432.501038,653.882324 436.576477,652.331665 440.954041,650.496277 445.557068,648.417969 450.308777,646.138550 455.132385,643.699951 459.950867,641.143921 464.687561,638.512451 469.265930,635.847290 473.608704,633.190186 477.639465,630.583130 481.281189,628.067810 484.457214,625.686157 487.090759,623.480103 489.104797,621.491211 490.422913,619.761597 490.968079,618.332886 491.068298,616.887817 491.112488,615.019287 491.101990,612.750122 491.038635,610.103210 490.924255,607.101318 490.760437,603.767334 490.549011,600.124084 490.291443,596.194214 489.989685,592.000854 489.645447,587.566589 489.260193,582.914307 488.835999,578.066772 488.374207,573.046997 487.876770,567.877563 487.345398,562.581482 486.781677,557.181458 486.187317,551.700439 485.564270,546.161133 484.914001,540.586426 484.238220,534.999084 483.538879,529.421997 482.817322,523.877991 482.075623,518.389832 481.315369,512.980347 480.538025,507.672363 479.745667,502.488831 478.939758,497.452332 478.122253,492.585999 477.294617,487.912292 476.458679,483.454346 475.616150,479.234863 474.768738,475.276611 473.918152,471.602539 473.066101,468.235413 472.214294,465.197937 471.364441,462.513184 470.518250,460.203735 469.677429,458.292603 468.843567,456.802429 468.018738,455.756226 467.204285,455.176697 466.402161,455.086670" />
			</g>
		</g>
	</g>
</svg>
